<svg xmlns="http://www.w3.org/2000/svg" viewBox="0 0 50 50" width="50" height="50">
    <path style="text-indent:0;text-align:start;line-height:normal;text-transform:none;block-progression:tb;-inkscape-font-specification:Sans" d="M 7 9 C 4.2504839 9 2 11.250484 2 14 L 2 36 C 2 38.749516 4.2504839 41 7 41 L 43 41 C 45.749516 41 48 38.749516 48 36 L 48 14 C 48 11.250484 45.749516 9 43 9 L 7 9 z M 7 11 L 43 11 C 44.668484 11 46 12.331516 46 14 L 46 16 L 4 16 L 4 14 C 4 12.331516 5.3315161 11 7 11 z M 4 21 L 46 21 L 46 36 C 46 37.668484 44.668484 39 43 39 L 7 39 C 5.3315161 39 4 37.668484 4 36 L 4 21 z M 9 24 L 9 26 L 25 26 L 25 24 L 9 24 z" color="#000" overflow="visible" font-family="Sans"/>
</svg>