<?xml version="1.0" encoding="utf-8"?>
<svg xmlns="http://www.w3.org/2000/svg" viewBox="0 0 50 50" fill="#000000"><path d="M 35.810547 2 C 35.395172 1.993125 34.905563 2.0730469 34.351562 2.3105469 C 34.337562 2.3155469 34.225109 2.3703281 34.037109 2.4863281 C 32.359109 3.5243281 27.754813 6.2377187 23.257812 7.7617188 C 29.674812 7.0927187 33.470812 5.2059688 34.632812 4.5429688 L 34.705078 4.5019531 L 34.78125 4.4667969 L 35.070312 4.3320312 L 35.205078 4.2695312 L 35.349609 4.2265625 C 35.860609 4.0755625 36.374953 4 36.876953 4 C 37.486953 4 38.085672 4.1178906 38.638672 4.3378906 C 38.626672 4.3068906 38.621375 4.2780937 38.609375 4.2460938 C 38.212375 3.2250938 37.612219 2.5399844 36.824219 2.2089844 C 36.566719 2.1009844 36.225922 2.006875 35.810547 2 z M 36.664062 6.0058594 C 36.432297 6.0220313 36.180609 6.0655313 35.912109 6.1445312 L 35.623047 6.2792969 C 34.093047 7.1522969 28.343547 10 18.560547 10 L 18.130859 10 C 17.040834 9.3817888 15.781477 9.0292969 14.425781 9.0292969 C 10.089781 9.0292969 2 12.882094 2 20.246094 C 2 25.029094 10.392781 25.029297 14.425781 25.029297 C 18.603781 25.029297 22.001953 21.354844 22.001953 16.839844 C 22.001953 16.557229 21.986049 16.279905 21.958984 16.005859 C 28.441965 15.887712 33.696845 15.18611 36.865234 13.990234 L 36.941406 13.960938 C 38.731406 13.451938 39.961953 11.868531 40.001953 10.019531 C 40.009953 9.6375312 39.964141 9.2436094 39.869141 8.8496094 C 39.587141 7.6736094 39.023281 6.8114219 38.238281 6.3574219 C 37.886531 6.1526719 37.359359 5.9573437 36.664062 6.0058594 z M 9.5 14 C 10.328 14 11 14.672 11 15.5 C 11 16.328 10.328 17 9.5 17 C 8.672 17 8 16.328 8 15.5 C 8 14.672 8.672 14 9.5 14 z M 23.779297 19 C 22.845297 23.583 19.007828 27.029297 14.423828 27.029297 C 12.834828 27.029297 10.662328 27.028672 8.4863281 26.763672 C 8.7713281 27.671672 9.1542969 28.654187 9.6542969 29.742188 L 9.7910156 30.023438 C 9.8580156 30.170437 9.9289531 30.321703 10.001953 30.470703 L 10.001953 43.080078 C 7.8139531 43.454078 7.077 45.041 7 46 L 7 48 L 12.710938 48 C 14.978937 48 15.832188 46.129359 15.867188 44.818359 L 16.585938 40.177734 C 17.498938 41.072734 18.606922 41.950156 19.794922 42.660156 C 20.463922 42.237156 21.242 42 22 42 L 26.347656 42 C 24.939656 40.69 24.001953 38.715 24.001953 36 C 24.001953 31.439 27.440953 28 32.001953 28 C 32.554953 28 33.001953 28.447 33.001953 29 C 33.001953 29.553 32.554953 30 32.001953 30 C 28.580953 30 26.001953 32.579 26.001953 36 C 26.001953 40.429 29.081703 42 31.720703 42 L 32.001953 42 C 32.554953 42 33.001953 42.447 33.001953 43 C 33.001953 43.553 32.554953 44 32.001953 44 L 22 44 C 21.034 44 20 44.746375 20 45.859375 L 20 48 L 38 48 L 38.001953 45.783203 C 38.001953 44.479203 38.457266 43.218766 39.322266 42.134766 C 41.071266 39.943766 44 36.277 44 32 C 44 24.828 38.45775 19.692406 33.09375 19.066406 C 32.73175 19.029406 32.367 19 32 19 L 23.779297 19 z M 47.224609 32.853516 L 46.027344 33.763672 C 45.975344 33.802672 45.903703 33.846672 45.845703 33.888672 C 45.253703 37.620672 43.012719 40.721812 40.886719 43.382812 C 40.504719 43.861812 40.253141 44.388594 40.119141 44.933594 C 43.340141 44.582594 48.001953 42.681156 48.001953 37.160156 C 48.000953 35.889156 47.615609 34.374547 47.599609 34.310547 L 47.224609 32.853516 z M 40.113281 44.945312 C 40.086281 45.060313 40.061922 45.175969 40.044922 45.292969 C 40.063922 45.176969 40.085281 45.060312 40.113281 44.945312 z" fill="#000000"/></svg>
