<svg xmlns="http://www.w3.org/2000/svg" width="50" height="50" viewBox="0 0 50 50">
    <path style="text-indent:0;text-align:start;line-height:normal;text-transform:none;block-progression:tb;-inkscape-font-specification:Bitstream Vera Sans" d="M 13 0 C 11.906937 0 11 0.9069372 11 2 L 11 4 L 4 4 C 2.9069372 4 2 4.9069372 2 6 L 2 26 A 1.0001 1.0001 0 1 0 4 26 L 4 16 L 48 16 L 48 48 L 4 48 L 4 36 A 1.0001 1.0001 0 1 0 2 36 L 2 48 C 2 49.093063 2.9069372 50 4 50 L 48 50 C 49.093063 50 50 49.093063 50 48 L 50 6 C 50 4.9069372 49.093063 4 48 4 L 41 4 L 41 2 C 41 0.9069372 40.093063 0 39 0 L 37 0 C 35.906937 0 35 0.9069372 35 2 L 35 4 L 17 4 L 17 2 C 17 0.9069372 16.093063 0 15 0 L 13 0 z M 13 2 L 15 2 L 15 8 L 13 8 L 13 5.1875 A 1.0001 1.0001 0 0 0 13 4.78125 L 13 2 z M 37 2 L 39 2 L 39 4.6875 A 1.001098 1.001098 0 0 0 39 5.28125 L 39 8 L 37 8 L 37 2 z M 4 6 L 11 6 L 11 8 C 11 9.0930628 11.906937 10 13 10 L 15 10 C 16.093063 10 17 9.0930628 17 8 L 17 6 L 35 6 L 35 8 C 35 9.0930628 35.906937 10 37 10 L 39 10 C 40.093063 10 41 9.0930628 41 8 L 41 6 L 48 6 L 48 14 L 4 14 L 4 6 z M 15.84375 23.09375 A 1.0001 1.0001 0 0 0 15.34375 24.8125 L 20.53125 30 L 1 30 A 1.0001 1.0001 0 0 0 0.90625 30 A 1.001098 1.001098 0 0 0 1 32 L 20.53125 32 L 15.34375 37.1875 A 1.0001 1.0001 0 1 0 16.75 38.59375 L 23.65625 31.71875 L 24.34375 31 L 23.65625 30.28125 L 16.75 23.40625 A 1.0001 1.0001 0 0 0 15.9375 23.09375 A 1.0001 1.0001 0 0 0 15.84375 23.09375 z" color="#000" overflow="visible" enable-background="accumulate" font-family="Bitstream Vera Sans"/>
</svg>