<svg xmlns="http://www.w3.org/2000/svg" width="50" height="50" viewBox="0 0 50 50">
    <path style="text-indent:0;text-align:start;line-height:normal;text-transform:none;block-progression:tb;-inkscape-font-specification:Bitstream Vera Sans" d="M 17 5 C 16.181246 5 15.602636 5.4988508 15.1875 5.96875 C 14.772364 6.4386492 14.439184 6.9675588 14.125 7.46875 C 13.810816 7.9699412 13.525632 8.437136 13.28125 8.71875 C 13.097964 8.9299605 12.9784 8.9869017 12.96875 9 L 3 9 C 1.3549372 9 0 10.354937 0 12 L 0 39 C 0 40.645063 1.3549372 42 3 42 L 47 42 C 48.645063 42 50 40.645063 50 39 L 50 12 C 50 10.354937 48.645063 9 47 9 L 37.03125 9 C 37.034467 9.0043661 37.021642 9 37 9 C 36.967808 8.9776841 36.877597 8.9017991 36.71875 8.71875 C 36.474368 8.437136 36.189184 7.9699412 35.875 7.46875 C 35.560816 6.9675588 35.227636 6.4386492 34.8125 5.96875 C 34.397364 5.4988508 33.818754 5 33 5 L 17 5 z M 17 7 L 33 7 C 32.93925 7 33.06504 7.00115 33.3125 7.28125 C 33.559957 7.5613508 33.843559 8.0324412 34.15625 8.53125 C 34.468941 9.0300588 34.812289 9.562864 35.21875 10.03125 C 35.625211 10.499636 36.178927 11 37 11 L 47 11 C 47.562937 11 48 11.437063 48 12 L 48 39 C 48 39.562937 47.562937 40 47 40 L 3 40 C 2.4370628 40 2 39.562937 2 39 L 2 12 C 2 11.437063 2.4370628 11 3 11 L 13 11 C 13.821073 11 14.374789 10.499636 14.78125 10.03125 C 15.187711 9.562864 15.531059 9.0300588 15.84375 8.53125 C 16.156441 8.0324412 16.440043 7.5613508 16.6875 7.28125 C 16.934957 7.0011492 17.060754 7 17 7 z M 25 11 C 17.832143 11 12 16.832143 12 24 C 12 31.167857 17.832143 37 25 37 C 32.167857 37 38 31.167857 38 24 C 38 16.832143 32.167857 11 25 11 z M 25 13 C 31.086977 13 36 17.913023 36 24 C 36 30.086977 31.086977 35 25 35 C 18.913023 35 14 30.086977 14 24 C 14 17.913023 18.913023 13 25 13 z M 8 14 C 6.896 14 6 14.896 6 16 C 6 17.104 6.896 18 8 18 L 9 18 C 10.104 18 11 17.104 11 16 C 11 14.896 10.104 14 9 14 L 8 14 z M 25 15 C 20.041282 15 16 19.041282 16 24 C 16 28.958718 20.041282 33 25 33 C 29.958718 33 34 28.958718 34 24 C 34 19.041282 29.958718 15 25 15 z M 25 17 C 28.877838 17 32 20.122162 32 24 C 32 27.877838 28.877838 31 25 31 C 21.122162 31 18 27.877838 18 24 C 18 20.122162 21.122162 17 25 17 z" color="#000" overflow="visible" enable-background="accumulate" font-family="Bitstream Vera Sans"/>
</svg>