<svg xmlns="http://www.w3.org/2000/svg" viewBox="0 0 50 50" enable-background="new 0 0 50 50" width="50" height="50">
    <path style="text-indent:0;text-align:start;line-height:normal;text-transform:none;block-progression:tb;-inkscape-font-specification:Bitstream Vera Sans" d="M 24.90625 -0.03125 A 1.0001 1.0001 0 0 0 24.78125 0 A 1.0001 1.0001 0 0 0 24 1 L 24 3.03125 C 12.661457 3.5435203 3.5431975 12.660997 3.03125 24 L 1 24 A 1.0001 1.0001 0 0 0 0.90625 24 A 1.001098 1.001098 0 0 0 1 26 L 3.03125 26 C 3.5431975 37.339003 12.661457 46.45648 24 46.96875 L 24 49 A 1.0001 1.0001 0 1 0 26 49 L 26 46.96875 C 37.338995 46.456803 46.456803 37.338995 46.96875 26 L 49 26 A 1.0001 1.0001 0 1 0 49 24 L 46.96875 24 C 46.456803 12.661005 37.338995 3.5431972 26 3.03125 L 26 1 A 1.0001 1.0001 0 0 0 24.90625 -0.03125 z M 26 5.03125 C 36.261056 5.5344947 44.465505 13.738944 44.96875 24 L 41 24 A 1.0001 1.0001 0 0 0 40.90625 24 A 1.001098 1.001098 0 0 0 40.8125 24 A 1.0043849 1.0043849 0 0 0 41 26 L 44.96875 26 C 44.465505 36.261056 36.261056 44.465505 26 44.96875 L 26 41 A 1.0001 1.0001 0 0 0 24.90625 39.96875 A 1.0001 1.0001 0 0 0 24.78125 40 A 1.0001 1.0001 0 0 0 24 41 L 24 44.9375 C 13.739668 44.433962 5.5344833 36.260824 5.03125 26 L 9 26 A 1.0001 1.0001 0 1 0 9 24 L 5.03125 24 C 5.5344833 13.739176 13.739668 5.5660376 24 5.0625 L 24 9 A 1.0001 1.0001 0 1 0 26 9 L 26 5.03125 z M 25 18 C 21.134007 18 18 21.134007 18 25 C 18 28.865993 21.134007 32 25 32 C 28.865993 32 32 28.865993 32 25 C 32 21.134007 28.865993 18 25 18 z"/>
</svg>