<svg xmlns="http://www.w3.org/2000/svg" width="50" height="50" viewBox="0 0 50 50">
    <path style="text-indent:0;text-align:start;line-height:normal;text-transform:none;block-progression:tb;-inkscape-font-specification:Bitstream Vera Sans" d="M 25 0 C 11.204726 0 0 11.204726 0 25 C 0 32.97974 3.7629097 40.077274 9.59375 44.65625 C 9.8790952 44.880332 10.173629 45.10075 10.46875 45.3125 C 10.553299 45.374423 10.633012 45.438997 10.71875 45.5 C 10.843427 45.587097 10.967428 45.665132 11.09375 45.75 C 11.360692 45.932147 11.628863 46.108213 11.90625 46.28125 C 11.970493 46.320862 12.029124 46.367204 12.09375 46.40625 C 12.209504 46.476973 12.320049 46.555911 12.4375 46.625 C 12.64914 46.748253 12.878231 46.851593 13.09375 46.96875 C 13.443214 47.160793 13.793741 47.354008 14.15625 47.53125 C 14.525279 47.711679 14.89974 47.866996 15.28125 48.03125 C 18.406498 49.376789 21.922528 50.1875 25.5625 50.1875 C 27.460601 50.1875 29.400961 49.802652 31.25 49.21875 C 34.998041 48.25319 38.397121 46.413902 41.25 43.96875 C 41.368195 43.875579 41.458884 43.806854 41.5625 43.71875 C 41.623612 43.664659 41.689423 43.617177 41.75 43.5625 C 41.773453 43.541399 41.789946 43.520819 41.8125 43.5 C 41.932951 43.390511 42.037959 43.268038 42.15625 43.15625 C 46.980673 38.597016 50 32.153346 50 25 C 50 11.204726 38.795274 0 25 0 z M 25 2 C 37.714394 2 48 12.285606 48 25 C 48 31.309594 45.480868 37.034386 41.375 41.1875 C 39.428006 39.716702 37.102414 38.919203 35.125 38.125 C 32.957934 37.254626 31.415139 36.397607 30.9375 35.25 C 30.831257 33.948979 30.83701 32.921423 30.84375 31.6875 C 30.973772 31.546021 31.159906 31.448375 31.28125 31.28125 C 31.555306 30.903798 31.81822 30.439482 32.0625 29.9375 C 32.488605 29.061876 32.795589 28.011691 32.96875 26.96875 C 33.283148 26.80649 33.61666 26.766934 33.875 26.4375 C 34.357397 25.822348 34.69643 24.947896 34.84375 23.71875 C 34.975563 22.624609 34.610546 21.902586 34.15625 21.34375 C 34.644491 19.757989 35.268136 17.193718 35.0625 14.5625 C 34.950263 13.126374 34.580976 11.692237 33.71875 10.5 C 32.928648 9.4074918 31.647679 8.608904 30.03125 8.28125 C 28.981568 6.9193246 27.088357 6.40625 24.90625 6.40625 L 24.875 6.40625 C 20.203288 6.492255 17.220404 8.3807765 15.9375 11.3125 C 14.715703 14.104581 14.989369 17.633048 15.875 21.28125 C 15.397706 21.838571 15.021163 22.58954 15.15625 23.71875 C 15.304101 24.947691 15.642843 25.822423 16.125 26.4375 C 16.389819 26.775324 16.739614 26.806548 17.0625 26.96875 C 17.239756 28.014579 17.531142 29.063833 17.96875 29.9375 C 18.220275 30.43966 18.50215 30.905206 18.78125 31.28125 C 18.904828 31.447752 19.087773 31.547272 19.21875 31.6875 C 19.22535 32.921109 19.23134 33.948655 19.125 35.25 C 18.649185 36.391848 17.10254 37.2266 14.9375 38.09375 C 12.942641 38.892739 10.589462 39.704521 8.625 41.1875 C 4.5191325 37.034386 2 31.309594 2 25 C 2 12.285606 12.285606 2 25 2 z M 24.90625 8.40625 C 24.91884 8.40625 24.92497 8.4062044 24.9375 8.40625 C 26.95087 8.41358 28.253751 9.0041913 28.625 9.65625 L 28.875 10.0625 L 29.34375 10.125 C 30.734702 10.318295 31.531476 10.878769 32.09375 11.65625 C 32.656024 12.433731 32.968737 13.519001 33.0625 14.71875 C 33.250027 17.118247 32.55999 19.910519 32.125 21.21875 L 31.875 22 L 32.5625 22.40625 C 32.51938 22.38008 32.943811 22.669422 32.84375 23.5 C 32.72607 24.481854 32.492353 24.989402 32.3125 25.21875 C 32.132647 25.448098 32.038894 25.436874 32.03125 25.4375 L 31.1875 25.5 L 31.09375 26.3125 C 31.00106 27.177795 30.653191 28.233964 30.25 29.0625 C 30.048405 29.476768 29.839663 29.841139 29.65625 30.09375 C 29.472837 30.346361 29.279153 30.487787 29.375 30.4375 L 28.84375 30.71875 L 28.84375 31.3125 C 28.84375 32.760155 28.78566 33.948497 28.9375 35.625 L 28.9375 35.75 L 29 35.875 C 29.823786 38.092185 32.097894 39.05418 34.375 39.96875 C 36.243334 40.719142 38.127744 41.516193 39.6875 42.5625 C 39.359586 42.825342 39.238957 42.979878 38.75 43.3125 C 37.762083 43.984549 36.47038 44.771839 35.03125 45.5 C 33.628422 46.209792 32.080562 46.857397 30.5 47.34375 C 30.459098 47.356336 30.415936 47.362644 30.375 47.375 C 28.649155 47.787791 26.853403 48 25 48 C 22.809466 48 20.693666 47.695437 18.6875 47.125 C 15.47467 46.131421 12.572928 44.512406 10.34375 42.5625 C 11.914679 41.516822 13.812021 40.719924 15.6875 39.96875 C 17.964175 39.056888 20.239949 38.086299 21.0625 35.875 L 21.09375 35.75 L 21.125 35.625 C 21.276805 33.948905 21.21875 32.760607 21.21875 31.3125 L 21.21875 30.71875 L 20.6875 30.4375 C 20.77872 30.48523 20.56365 30.34793 20.375 30.09375 C 20.18635 29.839575 19.957475 29.476715 19.75 29.0625 C 19.335051 28.23407 18.997608 27.168776 18.90625 26.3125 L 18.8125 25.5 L 17.96875 25.4375 C 17.96115 25.436878 17.867343 25.44817 17.6875 25.21875 C 17.507657 24.989327 17.274399 24.482059 17.15625 23.5 C 17.056864 22.669219 17.480627 22.379999 17.4375 22.40625 L 18.09375 22 L 17.90625 21.28125 C 16.964795 17.658031 16.801904 14.363027 17.78125 12.125 C 18.757843 9.8932657 20.748064 8.4905767 24.90625 8.40625 z" color="#000" overflow="visible" enable-background="accumulate" font-family="Bitstream Vera Sans"/>
</svg>