<?xml version="1.0" encoding="utf-8"?>
<svg xmlns="http://www.w3.org/2000/svg" width="50" height="50" viewBox="0 0 50 50" fill="#000000"><path d="M 25 2 C 18.437065 2 12.506904 4.763393 8.3125 9.1875 C 7.4411986 10.106517 6.6491466 11.103775 5.9375 12.15625 C 5.8825414 12.23753 5.8351929 12.324238 5.78125 12.40625 C 5.7524192 12.450058 5.7160393 12.487236 5.6875 12.53125 C 5.5681013 12.715472 5.4579738 12.905964 5.34375 13.09375 C 5.1980286 13.333256 5.0433703 13.567395 4.90625 13.8125 C 4.8465279 13.919439 4.7768057 14.017024 4.71875 14.125 C 4.674737 14.206674 4.6368004 14.292741 4.59375 14.375 C 4.4820372 14.588949 4.3863611 14.813438 4.28125 15.03125 C 4.2304913 15.136201 4.1742019 15.237924 4.125 15.34375 C 4.0165138 15.577463 3.9132811 15.824638 3.8125 16.0625 C 3.7728009 16.156056 3.7259885 16.249569 3.6875 16.34375 C 3.5855073 16.593891 3.4995867 16.839333 3.40625 17.09375 C 3.3529169 17.238813 3.3004679 17.38484 3.25 17.53125 C 3.1781704 17.740093 3.0971747 17.944757 3.03125 18.15625 C 3.0062134 18.236172 2.9929319 18.325957 2.96875 18.40625 C 2.8850018 18.68595 2.7920033 18.965972 2.71875 19.25 C 2.702549 19.312687 2.7031821 19.374608 2.6875 19.4375 C 2.6005448 19.786498 2.5082621 20.144955 2.4375 20.5 C 2.4335323 20.519855 2.4414163 20.542626 2.4375 20.5625 C 2.3681442 20.915436 2.3029551 21.266529 2.25 21.625 C 2.1997414 21.965217 2.1601306 22.311402 2.125 22.65625 C 2.122868 22.677276 2.1270749 22.697707 2.125 22.71875 C 2.0887539 23.084406 2.0500904 23.442069 2.03125 23.8125 C 2.0307225 23.822926 2.0317635 23.833321 2.03125 23.84375 C 2.0123677 24.225039 2 24.61411 2 25 C 2 37.683 12.318 48 25 48 C 37.683 48 48 37.683 48 25 C 48 12.318 37.683 2 25 2 z M 25 4 L 25 21.3125 L 9.96875 10.375 C 13.786254 6.4521277 19.106483 4 25 4 z M 13.09375 15.09375 L 24.1875 23.1875 C 24.4345 23.0765 24.711 23 25 23 C 25.507 23 25.9605 23.188 26.3125 23.5 L 35.78125 20.34375 L 36.40625 22.25 L 26.96875 25.40625 C 26.78275 26.31825 25.967 27 25 27 C 23.896 27 23 26.104 23 25 C 23 24.93 23.02425 24.84925 23.03125 24.78125 L 11.90625 16.71875 L 13.09375 15.09375 z" fill="#000000"/></svg>
