<?xml version="1.0" encoding="utf-8"?>
<svg xmlns="http://www.w3.org/2000/svg" viewBox="0 0 50 50" fill="#000000"><path style="text-indent:0;text-align:start;line-height:normal;text-transform:none;block-progression:tb;-inkscape-font-specification:Bitstream Vera Sans" d="M 12 2 C 9.2504209 2 7 4.2504209 7 7 C 7 9.7495791 9.2504209 12 12 12 C 14.749579 12 17 9.7495791 17 7 C 17 4.2504209 14.749579 2 12 2 z M 29 2 L 29 4 L 19 4 L 19 6 L 46 6 L 46 32 L 20 32 L 20 34 L 28.5 34 L 23 45 L 25 45 L 30 35 L 35 45 L 37 45 L 31.5 34 L 47 34 A 1.0001 1.0001 0 0 0 48 33 L 48 5 A 1.0001 1.0001 0 0 0 47 4 L 31 4 L 31 2 L 29 2 z M 12 4 C 13.668699 4 15 5.3313011 15 7 C 15 8.6686989 13.668699 10 12 10 C 10.331301 10 9 8.6686989 9 7 C 9 5.3313011 10.331301 4 12 4 z M 7.5 13 C 4.4744232 13 2 15.474423 2 18.5 L 2 30.8125 A 1.0001 1.0001 0 0 0 2 30.9375 L 2 31 A 1.0001 1.0001 0 0 0 2.03125 31.28125 C 2.1787819 32.792924 3.452489 34 5 34 C 5.3529831 34 5.6842419 33.926764 6 33.8125 L 6 44.5 C 6 46.421188 7.5788117 48 9.5 48 C 10.475944 48 11.362842 47.590253 12 46.9375 C 12.637158 47.590253 13.524056 48 14.5 48 C 16.421188 48 18 46.421188 18 44.5 L 18 19 L 29 19 C 30.64497 19 32 17.64497 32 16 C 32 14.376437 30.678437 13.034631 29.0625 13 A 1.0001 1.0001 0 0 0 29 13 L 15 13 A 1.0001 1.0001 0 0 0 14.09375 13.5625 L 12 17.75 L 9.90625 13.5625 A 1.0001 1.0001 0 0 0 9 13 L 8.40625 13 L 7.5 13 z M 7.5 15 L 8.375 15 L 11.09375 20.4375 A 1.0001 1.0001 0 0 0 12.90625 20.4375 L 15.625 15 L 29 15 A 1.0001 1.0001 0 0 0 29.09375 15 C 29.612188 15.045351 30 15.466814 30 16 C 30 16.56503 29.56503 17 29 17 L 17 17 A 1.0001 1.0001 0 0 0 16 18 L 16 44.5 C 16 45.340812 15.340812 46 14.5 46 C 13.711218 46 13.074819 45.422229 13 44.65625 L 13 44.40625 A 1.0001 1.0001 0 0 0 13 44.3125 L 13 34 A 1.0001 1.0001 0 0 0 11.90625 32.96875 A 1.0001 1.0001 0 0 0 11.78125 33 A 1.0001 1.0001 0 0 0 11 34 L 11 44.3125 A 1.0001 1.0001 0 0 0 11 44.4375 L 11 44.65625 C 10.925181 45.422229 10.288782 46 9.5 46 C 8.6591883 46 8 45.340812 8 44.5 L 8 21 A 1.0001 1.0001 0 0 0 6.78125 20 A 1.0001 1.0001 0 0 0 6 21 L 6 30.84375 A 1.0001 1.0001 0 0 0 6 30.9375 L 6 31 C 6 31.56503 5.5650302 32 5 32 C 4.4561993 32 4.0310433 31.59648 4 31.0625 A 1.0001 1.0001 0 0 0 4 31 A 1.0001 1.0001 0 0 0 4 30.8125 L 4 18.5 C 4 16.555577 5.5555768 15 7.5 15 z" fill="#000000"/></svg>
