<svg xmlns="http://www.w3.org/2000/svg" version="1" viewBox="0 0 50 50" enable-background="new 0 0 50 50" width="50" height="50">
    <path style="text-indent:0;text-align:start;line-height:normal;text-transform:none;block-progression:tb;-inkscape-font-specification:Bitstream Vera Sans" d="M 15 0 C 6.7545455 0 0 6.7545455 0 15 C 0 23.245455 6.7545455 30 15 30 C 15.795238 30 16.630551 29.883136 17.34375 29.78125 A 1.0001 1.0001 0 1 0 17.0625 27.8125 C 16.375699 27.910614 15.604762 28 15 28 C 7.8454545 28 2 22.154545 2 15 C 2 7.8454545 7.8454545 2 15 2 C 20.855556 2 25.861619 5.904716 27.4375 11.28125 A 1.0087508 1.0087508 0 1 0 29.375 10.71875 C 27.550881 4.495284 21.744444 0 15 0 z M 14.90625 4.96875 A 1.0001 1.0001 0 0 0 14.78125 5 A 1.0001 1.0001 0 0 0 14 6 L 14 13.5 C 13.521197 13.823473 13.1875 14.378679 13.1875 15 C 13.1875 15.104113 13.233031 15.213225 13.25 15.3125 L 9.59375 19 A 1.0001 1.0001 0 1 0 11 20.40625 L 14.6875 16.75 C 14.786775 16.766969 14.895887 16.8125 15 16.8125 C 15.994113 16.8125 16.8125 15.994113 16.8125 15 C 16.8125 14.378679 16.478803 13.823473 16 13.5 L 16 6 A 1.0001 1.0001 0 0 0 14.90625 4.96875 z M 29.34375 14.1875 A 1.0001 1.0001 0 0 0 28.625 14.6875 L 9.125 48.5 A 1.0001 1.0001 0 0 0 10 50 L 49 50 A 1.0001 1.0001 0 0 0 49.875 48.5 L 30.375 14.6875 A 1.0001 1.0001 0 0 0 29.4375 14.1875 A 1.0001 1.0001 0 0 0 29.34375 14.1875 z M 29.5 17.21875 L 47.25 48 L 11.75 48 L 29.5 17.21875 z M 28.5 27 C 28.3 27 28.1875 27.1125 28.1875 27.3125 L 28.1875 38.6875 C 28.1875 38.8875 28.3 39 28.5 39 L 30.40625 39 C 30.60625 39 30.6875 38.8875 30.6875 38.6875 L 30.6875 27.3125 C 30.6875 27.1125 30.60625 27 30.40625 27 L 28.5 27 z M 28.5 41.3125 C 28.3 41.3125 28.1875 41.39375 28.1875 41.59375 L 28.1875 43.6875 C 28.1875 43.8875 28.3 44 28.5 44 L 30.5 44 C 30.7 44 30.8125 43.8875 30.8125 43.6875 L 30.8125 41.59375 C 30.8125 41.39375 30.7 41.3125 30.5 41.3125 L 28.5 41.3125 z" color="#000" overflow="visible" enable-background="accumulate" font-family="Bitstream Vera Sans"/>
</svg>