<svg xmlns="http://www.w3.org/2000/svg" width="50" height="50" viewBox="0 0 50 50">
    <path style="text-indent:0;text-align:start;line-height:normal;text-transform:none;block-progression:tb;-inkscape-font-specification:Bitstream Vera Sans" d="M 25 0 C 24.613401 -1.4802974e-16 24.3125 0.30090068 24.3125 0.6875 C 24.3125 0.9979165 24.501487 1.2520628 24.78125 1.34375 C 24.446638 1.4394741 24.1875 1.7283924 24.1875 2.09375 C 22.693012 2.3474463 21.59375 3.29814 21.59375 5 L 22 5 L 22 7.46875 C 17.706774 8.7888022 14.506868 12.782879 14.0625 17 L 14 17 A 0.99659967 0.99659967 0 0 0 13.90625 17 A 1.001098 1.001098 0 0 0 14 19 L 14 21 A 0.99659967 0.99659967 0 0 0 14 21.09375 L 14 29 L 16 29 L 16 22 L 18 22 L 18 29 L 20 29 L 20 22 L 22 22 L 22 29 L 24 29 L 24 22 L 26 22 L 26 29 L 28 29 L 28 22 L 30 22 L 30 29 L 32 29 L 32 22 L 34 22 L 34 29 L 36 29 L 36 21.1875 A 0.99659967 0.99659967 0 0 0 36 21 L 36 19 A 1 1 0 0 0 36 17 L 35.9375 17 C 35.493132 12.782879 32.293226 8.7888022 28 7.46875 L 28 5 L 28.40625 5 C 28.40625 3.29814 27.306988 2.3474463 25.8125 2.09375 C 25.8125 1.7283924 25.553362 1.4394741 25.21875 1.34375 C 25.498513 1.2520628 25.6875 0.9979165 25.6875 0.6875 C 25.6875 0.30090068 25.386599 0 25 0 z M 24 5 L 26 5 L 26 7.0625 C 25.668234 7.0295368 25.34003 7 25 7 C 24.65997 7 24.331766 7.0295368 24 7.0625 L 24 5 z M 25 9 C 29.503015 9 33.210373 13.012716 33.78125 17 L 16.21875 17 C 16.789627 13.012716 20.496985 9 25 9 z M 16 19 L 34 19 L 34 20 L 16 20 L 16 19 z M 11.90625 29.96875 A 0.99659967 0.99659967 0 0 0 11.8125 30 L 11.78125 30 L 11 30 A 0.99659967 0.99659967 0 0 0 10.90625 30 A 1.001098 1.001098 0 0 0 10.8125 30 A 1.0043849 1.0043849 0 0 0 11 32 L 11 34 A 0.99659967 0.99659967 0 0 0 12 35 L 12 47 L 14 47 L 14 35 L 16 35 L 16 47 L 18 47 L 18 35 L 20 35 L 20 47 L 22 47 L 22 35 L 24 35 L 24 47 L 26 47 L 26 35 L 28 35 L 28 47 L 30 47 L 30 35 L 32 35 L 32 47 L 34 47 L 34 35 L 36 35 L 36 47 L 38 47 L 38 35 A 0.99659967 0.99659967 0 0 0 39 34 L 39 32 A 1 1 0 0 0 39 30 L 38.15625 30 L 37.875 30 L 12.3125 30 L 12.21875 30 A 0.99659967 0.99659967 0 0 0 11.90625 29.96875 z M 13 32 L 37 32 L 37 33 L 13 33 L 13 32 z M 9.71875 48 A 1.0043849 1.0043849 0 0 0 10 50 L 40 50 A 1.0001 1.0001 0 1 0 40 48 L 10 48 A 1.0001 1.0001 0 0 0 9.90625 48 A 1.001098 1.001098 0 0 0 9.8125 48 A 1.0043849 1.0043849 0 0 0 9.71875 48 z"/>
</svg>