<svg xmlns="http://www.w3.org/2000/svg" width="50" height="50" viewBox="0 0 50 50">
    <path style="text-indent:0;text-align:start;line-height:normal;text-transform:none;block-progression:tb;-inkscape-font-specification:Bitstream Vera Sans" d="M 24.875 0 A 1.0001 1.0001 0 0 0 24.4375 0.15625 L 0.4375 15.96875 A 1.0001 1.0001 0 0 0 0 16.8125 L 0 23.3125 A 1.0001 1.0001 0 0 0 1.5625 24.125 L 3 23.1875 L 3 49 A 1.0001 1.0001 0 0 0 4 50 L 46 50 A 1.0001 1.0001 0 0 0 47 49 L 47 23.1875 L 48.4375 24.125 A 1.0001 1.0001 0 0 0 50 23.3125 L 50 16.8125 A 1.0001 1.0001 0 0 0 49.5625 15.96875 L 25.5625 0.15625 A 1.0001 1.0001 0 0 0 24.875 0 z M 25 2.21875 L 48 17.34375 L 48 21.4375 L 25.5625 6.5625 A 1.0001 1.0001 0 0 0 24.4375 6.5625 L 2 21.4375 L 2 17.34375 L 25 2.21875 z M 25 8.59375 L 45 21.84375 L 45 48 L 39 48 L 39 32 A 1.0001 1.0001 0 0 0 38 31 L 27 31 A 1.0001 1.0001 0 0 0 26.90625 31 A 1.0001 1.0001 0 0 0 26 32 L 26 48 L 5 48 L 5 21.84375 L 25 8.59375 z M 11.8125 22 A 1.0001 1.0001 0 0 0 11 23 L 11 31 A 1.0001 1.0001 0 0 0 12 32 L 20 32 A 1.0001 1.0001 0 0 0 21 31 L 21 23 A 1.0001 1.0001 0 0 0 20 22 L 12 22 A 1.0001 1.0001 0 0 0 11.90625 22 A 1.0001 1.0001 0 0 0 11.8125 22 z M 13 24 L 19 24 L 19 30 L 13 30 L 13 24 z M 28 33 L 37 33 L 37 48 L 28 48 L 28 33 z" color="#000" overflow="visible" enable-background="accumulate" font-family="Bitstream Vera Sans"/>
</svg>