<svg xmlns="http://www.w3.org/2000/svg" viewBox="0 0 24 24" enable-background="new 0 0 24 24" width="50" height="50">
    <path d="M 12 0 C 10.7 0 9.5875 0.8 9.1875 2 L 5 2 C 3.9 2 3 2.9 3 4 L 3 20 C 3 21.1 3.9 22 5 22 L 19 22 C 20.1 22 21 21.1 21 20 L 21 4 C 21 2.9 20.1 2 19 2 L 14.8125 2 C 14.4125 0.8 13.3 0 12 0 z M 12 2 C 12.6 2 13 2.4 13 3 C 13 3.6 12.6 4 12 4 C 11.4 4 11 3.6 11 3 C 11 2.4 11.4 2 12 2 z M 5 4 L 7 4 L 7 6 L 17 6 L 17 4 L 19 4 L 19 20 L 5 20 L 5 4 z M 7 8 L 7 12 L 11 12 L 11 8 L 7 8 z M 8 9 L 10 9 L 10 11 L 8 11 L 8 9 z M 13 9 L 13 11 L 17 11 L 17 9 L 13 9 z M 7 14 L 7 18 L 11 18 L 11 14 L 7 14 z M 13 15 L 13 17 L 17 17 L 17 15 L 13 15 z"/>
</svg>