<svg xmlns="http://www.w3.org/2000/svg" viewBox="0 0 24 24" width="50" height="50">
    <path d="M 6 2 C 4.895 2 4 2.895 4 4 L 4 20 C 4 21.104 4.895 22 6 22 L 18 22 C 19.105 22 20 21.104 20 20 L 20 4 C 20 2.895 19.105 2 18 2 L 14 2 L 14 6 L 10 6 L 10 2 L 6 2 z M 12 3 C 11.447715 3 11 3.4477153 11 4 C 11 4.5522847 11.447715 5 12 5 C 12.552285 5 13 4.5522847 13 4 C 13 3.4477153 12.552285 3 12 3 z M 12 9 C 13.105 9 14 9.895 14 11 C 14 12.104 13.105 13 12 13 C 10.896 13 10 12.104 10 11 C 10 9.895 10.896 9 12 9 z M 12 14.03125 C 14.831 14.03125 16 16 16 16 L 16 17 L 12.0625 17 L 11.9375 17 L 8 17 L 8 16 C 8 16 9.169 14.03125 12 14.03125 z"/>
</svg>