<svg xmlns="http://www.w3.org/2000/svg" viewBox="0 0 24 24" width="50" height="50">
    <path d="M 14.90625 2 C 13.588495 2.0063831 12.331563 2.4496875 11.40625 3.375 C 9.5972157 5.1840343 9.5958211 8.2315647 11.21875 10.65625 L 6.375 15.5 L 4.96875 14.09375 L 2.125 16.90625 L 3.5625 18.3125 L 3 18.875 C 2.417 19.458 2.417 20.417 3 21 C 3.583 21.583 4.542 21.583 5.125 21 L 13.34375 12.78125 C 15.768435 14.404179 18.815966 14.402784 20.625 12.59375 C 22.74 10.47875 22.38275 6.69425 19.84375 4.15625 C 18.416125 2.728625 16.600507 1.9917932 14.90625 2 z M 14.90625 5 C 15.8171 4.9985547 16.894375 5.4575 17.71875 6.28125 C 19.03675 7.59925 19.41 9.55775 18.5 10.46875 C 17.59 11.37875 15.6315 11.0055 14.3125 9.6875 C 12.9935 8.3695 12.62125 6.411 13.53125 5.5 C 13.8725 5.15875 14.35974 5.0008672 14.90625 5 z"/>
</svg>