<svg xmlns="http://www.w3.org/2000/svg" viewBox="0 0 24 24" enable-background="new 0 0 24 24" width="50" height="50">
    <path style="text-indent:0;text-align:start;line-height:normal;text-transform:none;block-progression:tb;-inkscape-font-specification:Bitstream Vera Sans" d="M 9 2 C 5.1 2 2 5.1 2 9 C 2 12 3.89375 14.59375 6.59375 15.59375 L 7.6875 13.8125 C 5.5875 13.3125 4 11.3 4 9 C 4 6.2 6.2 4 9 4 C 11 4 12.7 5.20625 13.5 6.90625 C 13.7 6.90625 13.8 6.8125 14 6.8125 C 14.7 6.8125 15.3125 7.00625 15.8125 7.40625 C 15.1125 4.30625 12.3 2 9 2 z M 8 6 L 8 9 L 8 9.5625 L 8.46875 9.84375 L 10.0625 10.84375 L 11.125 9.15625 L 10 8.4375 L 10 6 L 8 6 z M 14 8.90625 C 13.575 8.90625 13.15625 9.1 12.90625 9.5 L 6.1875 20 C 5.6875 20.9 6.3125 22 7.3125 22 L 20.6875 22 C 21.6875 22 22.3125 20.9 21.8125 20 L 15.09375 9.5 C 14.84375 9.1 14.425 8.90625 14 8.90625 z M 13 12 L 15 12 L 15 17 L 13 17 L 13 12 z M 13 18 L 15 18 L 15 20 L 13 20 L 13 18 z" color="#000" overflow="visible" enable-background="accumulate" font-family="Bitstream Vera Sans"/>
</svg>