<svg xmlns="http://www.w3.org/2000/svg" viewBox="0 0 50 50" enable-background="new 0 0 50 50" width="50" height="50">
    <path style="text-indent:0;text-align:start;line-height:normal;text-transform:none;block-progression:tb;-inkscape-font-specification:Bitstream Vera Sans" d="M 10 4 C 8.3545455 4 7 5.3545455 7 7 L 7 45 A 1.0001 1.0001 0 0 0 8 46 L 21.84375 46 L 28.09375 46 L 42 46 A 1.0001 1.0001 0 0 0 43 45 L 43 7 C 43 5.3545455 41.645455 4 40 4 L 10 4 z M 10 6 L 40 6 C 40.554545 6 41 6.4454545 41 7 L 41 44 L 29 44 L 29 36 A 1.0001 1.0001 0 0 0 28 35 L 22 35 A 1.0001 1.0001 0 0 0 21.90625 35 A 1.0001 1.0001 0 0 0 21 36 L 21 44 L 9 44 L 9 7 C 9 6.4454545 9.4454545 6 10 6 z M 11.8125 8 A 1.0001 1.0001 0 0 0 11 9 L 11 14 A 1.0001 1.0001 0 0 0 12 15 L 18 15 A 1.0001 1.0001 0 0 0 19 14 L 19 9 A 1.0001 1.0001 0 0 0 18 8 L 12 8 A 1.0001 1.0001 0 0 0 11.90625 8 A 1.0001 1.0001 0 0 0 11.8125 8 z M 21.8125 8 A 1.0001 1.0001 0 0 0 21 9 L 21 14 A 1.0001 1.0001 0 0 0 22 15 L 28 15 A 1.0001 1.0001 0 0 0 29 14 L 29 9 A 1.0001 1.0001 0 0 0 28 8 L 22 8 A 1.0001 1.0001 0 0 0 21.90625 8 A 1.0001 1.0001 0 0 0 21.8125 8 z M 31.8125 8 A 1.0001 1.0001 0 0 0 31 9 L 31 14 A 1.0001 1.0001 0 0 0 32 15 L 38 15 A 1.0001 1.0001 0 0 0 39 14 L 39 9 A 1.0001 1.0001 0 0 0 38 8 L 32 8 A 1.0001 1.0001 0 0 0 31.90625 8 A 1.0001 1.0001 0 0 0 31.8125 8 z M 13 10 L 17 10 L 17 13 L 13 13 L 13 10 z M 23 10 L 27 10 L 27 13 L 23 13 L 23 10 z M 33 10 L 37 10 L 37 13 L 33 13 L 33 10 z M 11.8125 17 A 1.0001 1.0001 0 0 0 11 18 L 11 23 A 1.0001 1.0001 0 0 0 12 24 L 18 24 A 1.0001 1.0001 0 0 0 19 23 L 19 18 A 1.0001 1.0001 0 0 0 18 17 L 12 17 A 1.0001 1.0001 0 0 0 11.90625 17 A 1.0001 1.0001 0 0 0 11.8125 17 z M 21.8125 17 A 1.0001 1.0001 0 0 0 21 18 L 21 23 A 1.0001 1.0001 0 0 0 22 24 L 28 24 A 1.0001 1.0001 0 0 0 29 23 L 29 18 A 1.0001 1.0001 0 0 0 28 17 L 22 17 A 1.0001 1.0001 0 0 0 21.90625 17 A 1.0001 1.0001 0 0 0 21.8125 17 z M 31.8125 17 A 1.0001 1.0001 0 0 0 31 18 L 31 23 A 1.0001 1.0001 0 0 0 32 24 L 38 24 A 1.0001 1.0001 0 0 0 39 23 L 39 18 A 1.0001 1.0001 0 0 0 38 17 L 32 17 A 1.0001 1.0001 0 0 0 31.90625 17 A 1.0001 1.0001 0 0 0 31.8125 17 z M 13 19 L 17 19 L 17 22 L 13 22 L 13 19 z M 23 19 L 27 19 L 27 22 L 23 22 L 23 19 z M 33 19 L 37 19 L 37 22 L 33 22 L 33 19 z M 11.8125 26 A 1.0001 1.0001 0 0 0 11 27 L 11 32 A 1.0001 1.0001 0 0 0 12 33 L 18 33 A 1.0001 1.0001 0 0 0 19 32 L 19 27 A 1.0001 1.0001 0 0 0 18 26 L 12 26 A 1.0001 1.0001 0 0 0 11.90625 26 A 1.0001 1.0001 0 0 0 11.8125 26 z M 21.8125 26 A 1.0001 1.0001 0 0 0 21 27 L 21 32 A 1.0001 1.0001 0 0 0 22 33 L 28 33 A 1.0001 1.0001 0 0 0 29 32 L 29 27 A 1.0001 1.0001 0 0 0 28 26 L 22 26 A 1.0001 1.0001 0 0 0 21.90625 26 A 1.0001 1.0001 0 0 0 21.8125 26 z M 31.8125 26 A 1.0001 1.0001 0 0 0 31 27 L 31 32 A 1.0001 1.0001 0 0 0 32 33 L 38 33 A 1.0001 1.0001 0 0 0 39 32 L 39 27 A 1.0001 1.0001 0 0 0 38 26 L 32 26 A 1.0001 1.0001 0 0 0 31.90625 26 A 1.0001 1.0001 0 0 0 31.8125 26 z M 13 28 L 17 28 L 17 31 L 13 31 L 13 28 z M 23 28 L 27 28 L 27 31 L 23 31 L 23 28 z M 33 28 L 37 28 L 37 31 L 33 31 L 33 28 z M 11.8125 35 A 1.0001 1.0001 0 0 0 11 36 L 11 41 A 1.0001 1.0001 0 0 0 12 42 L 18 42 A 1.0001 1.0001 0 0 0 19 41 L 19 36 A 1.0001 1.0001 0 0 0 18 35 L 12 35 A 1.0001 1.0001 0 0 0 11.90625 35 A 1.0001 1.0001 0 0 0 11.8125 35 z M 31.8125 35 A 1.0001 1.0001 0 0 0 31 36 L 31 41 A 1.0001 1.0001 0 0 0 32 42 L 38 42 A 1.0001 1.0001 0 0 0 39 41 L 39 36 A 1.0001 1.0001 0 0 0 38 35 L 32 35 A 1.0001 1.0001 0 0 0 31.90625 35 A 1.0001 1.0001 0 0 0 31.8125 35 z M 13 37 L 17 37 L 17 40 L 13 40 L 13 37 z M 23 37 L 27 37 L 27 44 L 23 44 L 23 37 z M 33 37 L 37 37 L 37 40 L 33 40 L 33 37 z"/>
</svg>