<svg xmlns="http://www.w3.org/2000/svg" width="50" height="50" viewBox="0 0 50 50">
    <path style="text-indent:0;text-align:start;line-height:normal;text-transform:none;block-progression:tb;-inkscape-font-specification:Bitstream Vera Sans" d="M 33.53125 0 C 30.084469 0 26.82094 1.4290598 24.21875 4.03125 C 21.264836 6.9809034 19.850473 10.692362 20.25 14.625 C 20.489196 16.950245 21.387519 19.263852 22.78125 21.40625 L 9.5625 34.65625 L 7.875 32.96875 C 7.4765329 32.569297 7.0169022 32.26222 6.5 32.15625 C 5.9830978 32.05028 5.4411025 32.15255 5.03125 32.34375 C 4.211545 32.726165 3.6632678 33.367982 3.0625 33.96875 L 1.84375 35.1875 C 1.2407084 35.788062 0.63268716 36.336395 0.25 37.15625 C 0.05865642 37.566177 -0.07411148 38.076984 0.03125 38.59375 C 0.13661148 39.110516 0.4450435 39.570043 0.84375 39.96875 L 2.53125 41.65625 L 1.21875 43 L 1.21875 43.03125 C -0.357663 44.62716 -0.40067594 47.223015 1.1875 48.8125 L 1.21875 48.8125 C 2.8137525 50.403555 5.4041567 50.403081 7 48.8125 L 28.59375 27.21875 C 31.139831 28.878793 33.911294 29.8125 36.6875 29.8125 C 40.134281 29.8125 43.366542 28.384524 45.96875 25.78125 C 48.921593 22.831603 50.34031 19.089319 49.9375 15.15625 C 49.576564 11.604339 47.727677 8.0984782 44.8125 5.1875 C 41.514341 1.885148 37.531412 0 33.53125 0 z M 33.53125 2 C 36.903088 2 40.412409 3.596102 43.40625 6.59375 C 46.045073 9.2287718 47.632436 12.372911 47.9375 15.375 C 48.28069 18.725931 47.153657 21.786647 44.5625 24.375 C 42.284708 26.653726 39.592719 27.8125 36.6875 27.8125 C 33.315119 27.8125 29.774867 26.216173 26.78125 23.21875 C 24.142428 20.581829 22.558815 17.439507 22.25 14.4375 C 21.909527 11.086138 23.032914 8.0258466 25.625 5.4375 C 27.90281 3.1596902 30.626031 2 33.53125 2 z M 33.875 5.71875 C 31.820616 5.71875 29.910631 6.5926884 28.34375 8.15625 C 26.58757 9.91243 25.732414 12.146696 25.96875 14.46875 C 26.19821 16.702548 27.358849 18.921349 29.21875 20.78125 C 31.31262 22.871899 33.815937 24.09375 36.3125 24.09375 C 38.366884 24.09375 40.276805 23.222088 41.84375 21.65625 C 43.600402 19.901822 44.487477 17.666891 44.25 15.34375 C 44.020574 13.110289 42.830504 10.888697 40.96875 9.03125 C 38.877893 6.9360948 36.371255 5.71875 33.875 5.71875 z M 33.875 7.71875 C 35.710745 7.71875 37.761357 8.6326552 39.5625 10.4375 C 41.158746 12.030053 42.079426 13.870711 42.25 15.53125 C 42.426523 17.258109 41.840848 18.848428 40.4375 20.25 C 39.172445 21.514162 37.830116 22.09375 36.3125 22.09375 C 34.477063 22.09375 32.46238 21.147101 30.65625 19.34375 C 29.060151 17.747651 28.10804 15.910202 27.9375 14.25 C 27.761836 12.524054 28.34618 10.96632 29.75 9.5625 C 31.015119 8.3000616 32.357384 7.71875 33.875 7.71875 z M 23.96875 23.0625 C 24.407667 23.601858 24.869598 24.119961 25.375 24.625 C 25.879077 25.129717 26.402582 25.594421 26.9375 26.03125 L 5.59375 47.375 C 4.7635933 48.202419 3.4539975 48.201945 2.625 47.375 C 1.7935482 46.542863 1.794493 45.236072 2.625 44.40625 L 23.96875 23.0625 z M 6.03125 34.125 C 6.0643756 34.123819 6.0733261 34.120815 6.09375 34.125 C 6.134598 34.1334 6.2294671 34.16645 6.4375 34.375 L 8.125 36.0625 L 3.9375 40.25 L 2.25 38.5625 C 2.0422065 38.354707 2.0084198 38.228796 2 38.1875 C 1.9915802 38.146204 2.0009686 38.131823 2.0625 38 C 2.1855628 37.736355 2.6682916 37.204188 3.28125 36.59375 L 4.46875 35.375 L 4.5 35.375 C 5.1023641 34.773857 5.6150463 34.277526 5.875 34.15625 C 5.9408237 34.12554 5.9981244 34.126181 6.03125 34.125 z" color="#000" overflow="visible" enable-background="accumulate" font-family="Bitstream Vera Sans"/>
</svg>