<?xml version="1.0" encoding="utf-8"?>
<svg xmlns="http://www.w3.org/2000/svg" width="50" height="50" viewBox="0 0 50 50" fill="#000000"><path d="M 18.5 2.5625 C 14.364 2.5625 11 5.9265 11 10.0625 C 11 11.1925 11.263 12.27525 11.75 13.28125 C 15.413 11.05825 19.522 9.9375 24.25 9.9375 C 24.84 9.9375 25.415 9.99625 26 10.03125 C 25.978 5.91525 22.622 2.5625 18.5 2.5625 z M 37.28125 6.96875 C 37.191266 6.9662187 37.08925 6.9775 37 7 C 33.596 7.854 31.17725 9.644 29.65625 12.5 C 27.89925 12.13 26.1 11.9375 24.25 11.9375 C 18.983 11.9375 14.5375 13.41025 10.6875 16.40625 C 8.8549155 17.833297 7.5014512 19.743451 6.65625 22 C 5.862757 21.724006 4 20.87298 4 18.78125 C 4 17.70025 4.50575 16.7995 5.34375 16.4375 C 5.85075 16.2195 6.093 15.632 5.875 15.125 C 5.656 14.618 5.0675 14.37475 4.5625 14.59375 C 3.0035 15.26575 2 16.91825 2 18.78125 C 2 21.824269 4.4451683 23.395814 6.09375 23.9375 C 5.7509351 25.442532 5.5842566 27.059923 5.65625 28.78125 C 5.85025 33.41025 9.17875 36.744 11.21875 38.375 C 11.49875 38.591 11.49125 38.58075 11.40625 38.84375 C 11.09925 39.78675 10.54825 41.1445 10.53125 41.1875 C 10.27225 41.8655 10.29575 42.61825 10.59375 43.28125 C 10.89175 43.94625 11.41375 44.4285 12.09375 44.6875 L 15.3125 45.90625 C 16.6765 46.42525 18.32975 45.69675 18.84375 44.34375 C 18.84375 44.34375 19.24575 43.2425 19.59375 42.3125 C 19.62875 42.2185 19.6645 42.14475 19.6875 42.09375 C 19.8285 42.11475 20.044 42.1445 20.25 42.1875 C 21.059 42.3565 22.282 42.625 24.25 42.625 C 26.021 42.625 27.205 42.49125 28 42.40625 C 28.371 42.36725 28.653 42.3125 28.875 42.3125 C 28.889 42.3435 28.9195 42.3875 28.9375 42.4375 C 29.2585 43.4005 29.65425 44.34275 29.65625 44.34375 C 30.05225 45.39475 31.0615 46.09375 32.1875 46.09375 C 32.5185 46.09375 32.84725 46.02325 33.15625 45.90625 L 36.375 44.6875 C 37.056 44.4285 37.577 43.94725 37.875 43.28125 C 38.173 42.61825 38.1945 41.8595 37.9375 41.1875 L 37.4375 39.84375 C 37.4175 39.79175 37.403 39.76675 37.375 39.71875 C 37.375 39.71775 37.3955 39.6525 37.5625 39.5625 C 39.9255 38.2765 41.82625 36.263 43.03125 33.75 C 43.25425 33.282 43.349 33.15625 43.75 33.15625 L 45.375 33.15625 C 46.822 33.15625 48 31.97825 48 30.53125 L 48 25.65625 C 47.999 24.20625 46.822 23.03125 45.375 23.03125 L 43.75 23.03125 C 43.577 23.03125 43.46825 22.99075 43.40625 22.96875 C 43.12625 21.35975 41.865 16.7245 36.625 14.5625 C 36.683 12.6305 37.1745 11.0495 38.1875 8.3125 C 38.3165 7.9645 38.248 7.55725 38 7.28125 C 37.814 7.07425 37.551203 6.9763438 37.28125 6.96875 z M 36.46875 23.09375 C 37.52475 23.09375 38.375 23.945 38.375 25 C 38.376 26.056 37.52475 26.9375 36.46875 26.9375 C 35.40875 26.9375 34.5625 26.057 34.5625 25 C 34.5625 23.945 35.40875 23.09375 36.46875 23.09375 z" fill="#000000"/></svg>
