<svg xmlns="http://www.w3.org/2000/svg" viewBox="0 0 50 50" width="50" height="50">
    <path style="text-indent:0;text-align:start;line-height:normal;text-transform:none;block-progression:tb;-inkscape-font-specification:Sans" d="M 7 2 L 7 3 L 7 47 L 7 48 L 8 48 L 42 48 L 43 48 L 43 47 L 43 3 L 43 2 L 42 2 L 8 2 L 7 2 z M 9 4 L 41 4 L 41 46 L 9 46 L 9 4 z M 17.40625 8 C 15.22625 8.04 15.04375 9.71475 15.46875 11.34375 C 15.46875 11.34375 15.238 11.58225 15.25 11.90625 C 15.272 12.51825 15.6875 12.71875 15.6875 12.71875 C 15.7655 13.28775 16.2575 13.81125 16.4375 13.90625 C 16.4375 14.26925 16.4735 14.5405 16.4375 14.9375 C 16.0065 16.0965 13.134 15.763 13 18 L 21.875 18 C 21.741 15.763 18.8695 16.0975 18.4375 14.9375 C 18.4015 14.5405 18.4375 14.26925 18.4375 13.90625 C 18.6855 13.78725 19.1055 13.29675 19.1875 12.71875 C 19.1875 12.71875 19.625 12.453 19.625 12 C 19.625 11.684 19.49125 11.42975 19.40625 11.34375 C 19.63625 10.65175 20.04825 8.5625 18.53125 8.5625 C 18.36825 8.2755 17.95125 8 17.40625 8 z M 27.71875 10 A 1.0043849 1.0043849 0 0 0 28 12 L 36 12 A 1.0001 1.0001 0 1 0 36 10 L 28 10 A 1.0001 1.0001 0 0 0 27.90625 10 A 1.001098 1.001098 0 0 0 27.8125 10 A 1.0043849 1.0043849 0 0 0 27.71875 10 z M 27.71875 15 A 1.0043849 1.0043849 0 0 0 28 17 L 36 17 A 1.0001 1.0001 0 1 0 36 15 L 28 15 A 1.0001 1.0001 0 0 0 27.90625 15 A 1.001098 1.001098 0 0 0 27.8125 15 A 1.0043849 1.0043849 0 0 0 27.71875 15 z M 13.71875 25 A 1.0043849 1.0043849 0 0 0 14 27 L 28 27 A 1.0001 1.0001 0 1 0 28 25 L 14 25 A 1.0001 1.0001 0 0 0 13.90625 25 A 1.001098 1.001098 0 0 0 13.8125 25 A 1.0043849 1.0043849 0 0 0 13.71875 25 z M 32.71875 25 A 1.0043849 1.0043849 0 0 0 33 27 L 36 27 A 1.0001 1.0001 0 1 0 36 25 L 33 25 A 1.0001 1.0001 0 0 0 32.90625 25 A 1.001098 1.001098 0 0 0 32.8125 25 A 1.0043849 1.0043849 0 0 0 32.71875 25 z M 13.71875 31 A 1.0043849 1.0043849 0 0 0 14 33 L 25 33 A 1.0001 1.0001 0 1 0 25 31 L 14 31 A 1.0001 1.0001 0 0 0 13.90625 31 A 1.001098 1.001098 0 0 0 13.8125 31 A 1.0043849 1.0043849 0 0 0 13.71875 31 z M 32.71875 31 A 1.0043849 1.0043849 0 0 0 33 33 L 36 33 A 1.0001 1.0001 0 1 0 36 31 L 33 31 A 1.0001 1.0001 0 0 0 32.90625 31 A 1.001098 1.001098 0 0 0 32.8125 31 A 1.0043849 1.0043849 0 0 0 32.71875 31 z M 13.71875 37 A 1.0043849 1.0043849 0 0 0 14 39 L 28 39 A 1.0001 1.0001 0 1 0 28 37 L 14 37 A 1.0001 1.0001 0 0 0 13.90625 37 A 1.001098 1.001098 0 0 0 13.8125 37 A 1.0043849 1.0043849 0 0 0 13.71875 37 z M 32.71875 37 A 1.0043849 1.0043849 0 0 0 33 39 L 36 39 A 1.0001 1.0001 0 1 0 36 37 L 33 37 A 1.0001 1.0001 0 0 0 32.90625 37 A 1.001098 1.001098 0 0 0 32.8125 37 A 1.0043849 1.0043849 0 0 0 32.71875 37 z"/>
</svg>