<svg xmlns="http://www.w3.org/2000/svg" width="50" height="50" viewBox="0 0 50 50">
    <path style="text-indent:0;text-align:start;line-height:normal;text-transform:none;block-progression:tb;-inkscape-font-specification:Bitstream Vera Sans" d="M 16.8125 0 A 1.0001 1.0001 0 0 0 16 1 L 16 2 L 7.90625 2 C 6.30625 2 5 3.30625 5 4.90625 L 5 47 C 5 48.645455 6.30625 50 7.90625 50 L 42 50 C 43.645455 50 44.90625 48.627083 44.90625 47.09375 L 44.90625 5 C 44.90955 4.967149 44.90415 4.938854 44.90625 4.90625 C 45.008976 3.3010284 43.661899 2 42.09375 2 L 34 2 L 34 1 A 1.0001 1.0001 0 0 0 33 0 L 17 0 A 1.0001 1.0001 0 0 0 16.90625 0 A 1.0001 1.0001 0 0 0 16.8125 0 z M 18 2 L 32 2 L 32 8 L 18 8 L 18 2 z M 7.90625 4 L 16 4 L 16 6 L 10 6 L 9 6 L 9 7 L 9 45 L 9 46 L 10 46 L 40 46 L 41 46 L 41 45 L 41 7 L 41 6 L 40 6 L 34 6 L 34 4 L 42.09375 4 C 42.49375 4 42.941228 4.4627223 42.90625 4.8125 A 1.0001 1.0001 0 0 0 42.90625 4.90625 L 42.90625 47.09375 C 42.90625 47.560417 42.554545 48 42 48 L 7.90625 48 C 7.50625 48 7 47.554545 7 47 L 7 4.90625 C 7 4.50625 7.50625 4 7.90625 4 z M 11 8 L 16 8 L 16 9 A 1.0001 1.0001 0 0 0 17 10 L 33 10 A 1.0001 1.0001 0 0 0 34 9 L 34 8 L 39 8 L 39 44 L 11 44 L 11 8 z M 15 17 L 15 18 L 15 24 L 15 25 L 16 25 L 22 25 L 23 25 L 23 24 L 23 18 L 23 17 L 22 17 L 16 17 L 15 17 z M 17 19 L 21 19 L 21 23 L 17 23 L 17 19 z M 26 20 L 26 22 L 35 22 L 35 20 L 26 20 z M 15 30 L 15 31 L 15 37 L 15 38 L 16 38 L 22 38 L 23 38 L 23 37 L 23 31 L 23 30 L 22 30 L 16 30 L 15 30 z M 17 32 L 21 32 L 21 36 L 17 36 L 17 32 z M 18 33 L 18 35 L 20 35 L 20 33 L 18 33 z M 26 33 L 26 35 L 35 35 L 35 33 L 26 33 z"/>
</svg>