<svg xmlns="http://www.w3.org/2000/svg" width="50" height="50" viewBox="0 0 50 50">
    <path d="M 17 0 C 16.448 0 16 0.448 16 1 L 16 9 C 16 9.552 16.448 10 17 10 L 33 10 C 33.553 10 34 9.552 34 9 L 34 1 C 34 0.448 33.553 0 33 0 L 17 0 z M 8 2 C 6.346 2 5 3.346 5 5 L 5 47 C 5 48.654 6.346 50 8 50 L 42 50 C 43.654 50 45 48.654 45 47 L 45 5 C 45 3.346 43.654 2 42 2 L 36 2 L 36 6 L 41 6 L 41 46 L 9 46 L 9 6 L 14 6 L 14 2 L 8 2 z M 11 8 L 11 44 L 39 44 L 39 8 L 36 8 L 36 9 C 36 10.654 34.654 12 33 12 L 17 12 C 15.346 12 14 10.654 14 9 L 14 8 L 11 8 z M 15 17 L 23 17 L 23 25 L 15 25 L 15 17 z M 17 19 L 17 23 L 21 23 L 21 19 L 17 19 z M 26 20 L 35 20 L 35 22 L 26 22 L 26 20 z M 15 30 L 23 30 L 23 38 L 15 38 L 15 30 z M 17 32 L 17 36 L 21 36 L 21 32 L 17 32 z M 18 33 L 20 33 L 20 35 L 18 35 L 18 33 z M 26 33 L 35 33 L 35 35 L 26 35 L 26 33 z"/>
</svg>