<?xml version="1.0" encoding="utf-8"?>
<svg xmlns="http://www.w3.org/2000/svg" viewBox="0 0 50 50" fill="#000000"><path d="M 21 1 L 21 4 L 23 4 L 23 5.09375 C 11.802084 6.1068102 3 15.542654 3 27 C 3 39.131 12.869 49 25 49 C 37.131 49 47 39.131 47 27 C 47 15.542654 38.197916 6.1068102 27 5.09375 L 27 4 L 29 4 L 29 1 L 21 1 z M 40.25 5.15625 L 38.21875 7.15625 L 42.84375 11.78125 L 44.84375 9.75 L 40.25 5.15625 z M 14.40625 15.40625 C 14.662 15.40625 14.89825 15.492 15.09375 15.6875 L 24.5 25.0625 C 24.665 25.0195 24.822 25 25 25 C 26.105 25 27 25.896 27 27 C 27 27.178 26.9805 27.335 26.9375 27.5 L 28.53125 29.125 C 28.92225 29.516 28.92225 30.14125 28.53125 30.53125 C 28.33625 30.72625 28.0685 30.8125 27.8125 30.8125 C 27.5565 30.8125 27.32 30.72625 27.125 30.53125 L 25.5 28.9375 C 25.335 28.9805 25.178 29 25 29 C 23.895 29 23 28.104 23 27 C 23 26.822 23.0195 26.665 23.0625 26.5 L 13.6875 17.09375 C 13.2965 16.70275 13.2965 16.0785 13.6875 15.6875 C 13.883 15.492 14.1505 15.40625 14.40625 15.40625 z" fill="#000000"/></svg>
